<?xml version="1.0" standalone="no"?>
<!DOCTYPE svg PUBLIC "-//W3C//DTD SVG 20010904//EN"
 "http://www.w3.org/TR/2001/REC-SVG-20010904/DTD/svg10.dtd">
<svg version="1.0" xmlns="http://www.w3.org/2000/svg"
 width="320.000000pt" height="226.000000pt" viewBox="0 0 320.000000 226.000000"
 preserveAspectRatio="xMidYMid meet">

<g transform="translate(0.000000,226.000000) scale(0.100000,-0.100000)"
fill="#000000" stroke="none">
<path d="M1555 2164 c-41 -11 -141 -59 -182 -86 -51 -35 -91 -98 -99 -161 -4
-30 -15 -54 -30 -68 -13 -12 -24 -28 -24 -35 0 -7 -17 -25 -39 -41 -21 -15
-49 -42 -61 -60 -24 -35 -40 -42 -40 -18 0 22 -65 148 -84 164 -38 32 -60 -18
-71 -161 -4 -49 -9 -88 -10 -88 -1 0 -19 7 -38 15 -51 21 -87 20 -87 -4 0 -28
-40 -35 -57 -11 -21 30 -69 26 -104 -9 -34 -35 -36 -54 -8 -89 15 -20 19 -34
14 -63 -6 -35 -2 -43 79 -143 103 -126 106 -142 47 -229 -42 -61 -43 -71 -9
-119 l19 -28 -28 -11 c-44 -16 -80 -57 -91 -102 -15 -58 -33 -474 -23 -517 18
-80 49 -117 124 -149 65 -28 95 -26 158 9 30 16 99 52 153 80 l100 51 50 -35
c74 -49 163 -92 237 -112 79 -22 252 -24 329 -5 69 17 184 69 244 110 24 17
50 31 56 31 6 0 52 -25 103 -56 168 -103 189 -109 262 -75 54 25 84 55 108
110 19 43 20 58 13 294 -5 180 -10 258 -21 283 -17 41 -61 84 -87 84 -38 0
-33 32 12 70 53 45 49 63 -17 80 l-49 13 22 44 c28 53 49 145 40 168 -4 12
-12 15 -24 10 -45 -19 -48 -18 -66 42 -10 32 -31 81 -47 110 -25 45 -27 56
-18 83 6 16 9 41 5 53 -4 17 0 25 16 32 80 37 78 161 -3 197 -25 11 -29 17
-24 39 8 35 -15 53 -59 45 -43 -8 -86 -51 -86 -85 0 -20 -8 -30 -31 -40 -17
-7 -40 -29 -51 -47 -25 -43 -43 -44 -34 -3 7 35 -19 104 -47 128 -10 7 -17 24
-17 36 0 35 -27 102 -56 140 -18 24 -57 51 -119 82 -79 38 -104 46 -162 49
-37 1 -77 0 -88 -2z m141 -58 c89 -30 164 -68 189 -96 19 -21 17 -21 -17 3
-53 36 -205 97 -240 97 -33 0 -210 -71 -246 -99 -13 -9 -32 -42 -43 -72 l-19
-54 5 45 c7 59 30 89 95 124 52 28 174 75 196 76 6 0 42 -11 80 -24z m-64
-134 l-5 -52 -62 0 c-57 0 -63 2 -74 26 -15 34 -8 41 23 20 34 -22 36 -21 36
16 0 29 1 30 18 15 23 -21 32 -21 32 -2 0 8 5 26 12 40 11 24 13 25 19 8 3
-10 4 -42 1 -71z m58 12 c-16 -42 -12 -45 30 -24 44 22 54 25 45 10 -7 -12
-79 -50 -95 -50 -14 0 -13 46 2 70 18 28 29 25 18 -6z m185 -108 c28 -9 37
-14 20 -11 -146 22 -273 28 -382 17 -141 -14 -184 -25 -220 -56 -22 -19 -28
-32 -27 -65 1 -24 -3 -38 -8 -34 -17 10 -1 83 23 109 46 49 138 64 369 59 121
-3 190 -8 225 -19z m378 -30 c-4 -20 1 -28 28 -41 51 -26 69 -45 69 -74 0 -34
-26 -71 -49 -71 -9 0 -25 -6 -35 -13 -17 -13 -17 -15 -3 -38 14 -21 14 -27 1
-55 -24 -49 -66 -68 -134 -60 -47 5 -60 4 -71 -10 -11 -14 -11 -18 -1 -22 21
-7 43 -34 40 -50 -2 -8 -15 -24 -29 -34 -24 -18 -29 -18 -62 -5 -36 15 -36 15
-39 -11 -4 -33 -36 -41 -71 -18 -25 17 -39 13 -30 -10 7 -18 -10 -18 -45 0
-15 7 -44 16 -64 20 -21 4 -38 11 -38 15 0 11 25 21 51 21 11 0 27 9 36 20 11
12 30 20 50 20 37 0 48 12 34 38 -17 32 10 57 61 57 41 0 43 1 46 32 4 39 43
73 83 73 27 0 29 2 29 42 0 53 22 78 68 78 29 0 33 3 27 18 -17 40 -16 61 4
81 29 29 49 27 44 -3z m-1223 -148 c0 -10 5 -18 10 -18 12 0 12 -183 0 -220
-5 -17 -8 -19 -9 -7 -1 9 -5 17 -10 17 -5 0 -18 22 -30 49 -17 40 -21 70 -21
148 0 54 3 109 7 122 6 22 8 20 30 -24 12 -27 23 -57 23 -67z m540 37 c14 -8
39 -14 55 -14 17 0 41 6 55 14 33 19 84 19 100 0 8 -9 30 -15 59 -15 57 0 71
-12 71 -62 0 -55 -24 -104 -59 -122 -41 -22 -61 -20 -90 8 -15 13 -39 29 -56
35 l-30 11 29 -6 c16 -3 41 -14 54 -25 34 -26 78 -24 107 5 28 28 42 88 27
120 -9 21 -17 23 -89 23 -76 1 -73 -1 15 -13 47 -6 53 -20 20 -51 -18 -17 -39
-22 -100 -25 -57 -2 -79 0 -83 10 -7 19 23 60 48 65 l22 4 -22 2 c-12 0 -29
-9 -39 -21 l-16 -23 6 28 c6 25 4 27 -29 27 -34 0 -35 0 -29 -36 7 -44 -12
-94 -36 -94 -9 0 -34 -11 -54 -25 -74 -50 -155 -17 -172 70 -11 62 10 89 74
95 28 3 57 11 64 18 16 16 67 15 98 -3z m-374 -32 c-10 -10 -19 5 -10 18 6 11
8 11 12 0 2 -7 1 -15 -2 -18z m-44 -50 c-7 -15 -13 -48 -14 -71 -2 -35 -10
-52 -40 -85 -37 -41 -38 -41 -38 -16 0 29 87 215 97 206 3 -4 1 -19 -5 -34z
m112 -4 c-3 -5 -16 -9 -29 -9 -25 0 -45 -25 -45 -56 0 -16 1 -16 19 0 16 15
19 15 31 1 11 -13 9 -19 -9 -39 -11 -12 -18 -26 -14 -31 5 -4 1 -6 -7 -3 -8 2
-23 19 -32 37 -13 26 -14 39 -6 63 13 37 66 72 85 56 7 -5 10 -14 7 -19z m771
11 c3 -5 -3 -10 -14 -10 -11 0 -23 5 -26 10 -3 6 3 10 14 10 11 0 23 -4 26
-10z m-1135 -98 c30 -20 65 -52 77 -71 25 -36 31 -63 11 -43 -7 7 -20 12 -31
12 -10 0 -15 4 -12 10 3 5 -6 12 -21 16 -32 8 -69 47 -83 87 -13 35 -8 34 59
-11z m-165 -6 c13 -19 14 -29 5 -45 -14 -27 -20 -26 -49 10 -23 29 -23 31 -5
44 26 20 31 19 49 -9z m-61 -36 c30 -46 21 -55 -12 -10 -20 26 -28 50 -18 50
2 0 15 -18 30 -40z m130 24 c5 -14 4 -15 -9 -4 -17 14 -19 20 -6 20 5 0 12 -7
15 -16z m802 1 c19 -12 24 -12 40 0 28 21 61 18 78 -7 15 -20 14 -24 -6 -45
l-22 -23 31 6 c29 6 30 5 25 -22 -2 -16 -16 -39 -31 -50 -23 -19 -34 -21 -101
-17 -72 5 -94 0 -162 -35 -16 -8 -7 53 13 95 20 41 41 54 54 33 3 -5 11 -10
16 -10 6 0 2 14 -8 31 -17 30 -17 31 1 45 25 18 46 18 72 -1z m-306 -14 c-5
-11 -10 -39 -10 -62 0 -34 2 -39 14 -30 11 9 15 5 18 -24 2 -19 1 -38 -3 -43
-4 -4 -9 -18 -11 -32 -3 -24 -4 -24 -15 -5 -6 11 -17 47 -24 80 -11 54 -10 65
6 98 9 20 21 37 26 37 6 0 5 -8 -1 -19z m-404 -131 c52 -63 94 -119 94 -124 0
-12 4 -17 -110 124 -116 142 -122 150 -96 130 10 -8 61 -67 112 -130z m-11
-30 c82 -103 116 -139 133 -140 32 0 28 -30 -9 -66 -27 -26 -32 -27 -42 -13
-18 24 -104 131 -178 223 l-67 82 22 26 c11 15 23 27 26 27 3 0 55 -63 115
-139z m319 86 c-7 -19 -30 -27 -83 -31 l-43 -4 48 34 c36 24 54 30 66 24 10
-5 15 -16 12 -23z m1096 -39 c44 -91 64 -168 46 -185 -12 -12 -16 -6 -25 36
-13 63 -48 152 -68 174 -15 16 -11 38 7 38 5 0 23 -28 40 -63z m-1595 4 c53
-76 136 -181 143 -181 9 0 224 -253 230 -271 2 -5 17 -9 32 -9 36 0 50 -19 16
-21 -14 -1 -32 -2 -38 -3 -7 -1 -14 5 -14 12 -3 26 -5 26 -20 0 -22 -41 -32
-34 -26 20 4 46 2 50 -45 100 -58 62 -90 68 -131 24 -46 -49 -58 -79 -44 -114
11 -30 11 -30 -8 -13 -34 31 -33 50 10 117 37 55 41 68 35 103 -3 21 -11 46
-18 54 -7 9 -45 55 -84 102 -67 81 -85 109 -65 109 4 0 16 -13 27 -29z m270
-11 c18 -7 18 -8 -8 -15 -21 -6 -33 -3 -45 9 -15 15 -14 16 8 15 14 0 34 -4
45 -9z m168 -31 c43 -12 51 -32 10 -26 -59 9 -92 20 -87 28 7 12 31 11 77 -2z
m-139 -14 c-27 -20 -51 -20 -34 0 7 8 22 15 33 15 20 0 20 0 1 -15z m362 -150
c-5 -13 -26 40 -33 82 -3 18 -2 45 2 60 7 24 10 16 21 -52 8 -44 12 -84 10
-90z m315 134 c38 -12 72 -25 75 -30 3 -5 -10 -25 -29 -44 -32 -32 -40 -35
-97 -35 -34 0 -70 5 -82 11 -26 14 -33 6 -18 -21 10 -19 10 -20 -7 -12 -30 16
-52 46 -59 78 -5 28 -2 32 33 46 79 34 93 35 184 7z m589 -73 c11 -65 11 -78
-4 -107 -9 -17 -16 -41 -16 -51 0 -23 -17 -58 -29 -58 -5 0 -14 14 -21 30 -14
34 -9 152 8 173 5 6 15 29 21 50 7 20 16 37 20 37 5 0 14 -33 21 -74z m-1095
10 c-27 -7 -60 -18 -72 -24 -13 -7 -23 -9 -23 -4 0 12 87 41 120 41 14 -1 3
-6 -25 -13z m261 -99 c15 -37 18 -55 10 -48 -22 18 -46 76 -45 108 0 15 3 21
6 13 3 -8 16 -41 29 -73z m707 -15 c19 -32 39 -70 43 -86 6 -27 6 -27 -17 -14
-53 30 -89 87 -89 142 0 48 12 40 63 -42z m-825 18 c12 0 13 -3 5 -11 -18 -18
-33 -1 -32 34 2 30 2 31 6 5 3 -18 11 -28 21 -28z m647 11 c-4 -17 -10 -31
-14 -31 -5 0 -3 15 3 34 13 42 21 39 11 -3z m450 17 c-8 -28 -56 -100 -62 -94
-3 2 -13 -3 -22 -12 -30 -29 -71 -62 -76 -62 -3 0 2 17 10 38 14 34 128 151
148 152 5 0 5 -10 2 -22z m-1355 -32 c0 -2 -8 -10 -17 -17 -16 -13 -17 -12 -4
4 13 16 21 21 21 13z m320 -83 c0 -7 4 -13 9 -13 24 0 63 -91 46 -109 -7 -7
-75 41 -85 60 -16 29 3 23 35 -11 31 -32 45 -38 45 -17 -1 14 -45 67 -57 67
-5 0 -16 21 -25 48 l-17 47 25 -30 c13 -16 24 -36 24 -42z m-57 12 c23 -41 23
-62 0 -32 -11 13 -34 77 -28 77 2 0 15 -20 28 -45z m643 36 c-3 -4 -10 -21
-16 -36 -6 -15 -13 -25 -16 -22 -6 6 23 67 32 67 3 0 3 -4 0 -9z m-936 -5 c0
-2 -8 -10 -17 -17 -16 -13 -17 -12 -4 4 13 16 21 21 21 13z m30 1 c0 -2 -10
-12 -22 -23 l-23 -19 19 23 c18 21 26 27 26 19z m30 -1 c0 -2 -8 -10 -17 -17
-16 -13 -17 -12 -4 4 13 16 21 21 21 13z m807 -35 c-7 -17 -15 -30 -18 -27 -2
2 -16 -14 -31 -35 -34 -48 -22 -57 25 -18 47 39 49 21 2 -20 -39 -34 -55 -39
-55 -16 0 12 -7 11 -40 -6 -22 -12 -40 -25 -40 -30 0 -5 -10 -9 -22 -9 -13 0
-36 -7 -52 -15 -16 -9 -32 -12 -35 -7 -8 12 -80 22 -86 12 -3 -4 1 -11 7 -13
7 -3 -1 -6 -19 -6 -34 -1 -103 27 -103 41 0 12 6 10 52 -13 27 -14 44 -17 50
-11 15 15 3 27 -41 42 -23 7 -41 17 -41 22 0 11 3 10 50 -8 22 -9 40 -20 40
-25 0 -5 11 -9 24 -9 14 0 36 -4 49 -9 26 -10 111 12 135 35 6 7 20 15 31 19
19 6 89 84 110 123 18 34 24 21 8 -17z m-727 9 c0 -11 -2 -20 -5 -20 -2 0 -9
9 -15 20 -9 16 -8 20 5 20 8 0 15 -9 15 -20z m0 -64 c0 -14 -29 -28 -67 -31
-29 -3 -29 0 2 37 31 37 33 58 3 32 l-23 -19 20 23 20 24 22 -27 c13 -14 23
-32 23 -39z m-80 50 c0 -2 -8 -10 -17 -17 -16 -13 -17 -12 -4 4 13 16 21 21
21 13z m-136 -28 c24 -34 20 -59 -4 -28 l-20 25 7 -34 c4 -22 3 -32 -4 -28
-14 9 -23 57 -11 57 6 0 8 7 4 15 -8 23 11 18 28 -7z m966 2 c0 -5 -4 -10 -10
-10 -5 0 -10 5 -10 10 0 6 5 10 10 10 6 0 10 -4 10 -10z m209 -32 c48 -29 44
-40 -13 -32 -37 6 -96 46 -96 65 0 12 66 -8 109 -33z m-1229 -23 c0 -28 -32
-65 -55 -65 -24 0 -17 39 11 65 34 32 44 31 44 0z m1538 7 c29 -19 -94 -40
-148 -25 -24 6 -23 7 10 19 40 14 119 18 138 6z m-244 -51 c6 -9 -44 -31 -70
-31 -27 0 -14 20 19 29 43 12 45 12 51 2z m107 -21 c19 -15 21 -19 7 -20 -9 0
-18 5 -20 10 -2 6 -13 12 -26 13 -27 2 -30 17 -3 17 10 0 29 -9 42 -20z m-471
5 c0 -3 -15 -14 -32 -25 -34 -21 -84 -27 -73 -10 3 6 16 10 28 10 12 0 31 7
41 15 20 15 36 19 36 10z m-844 -42 c-11 -11 -17 4 -9 23 7 18 8 18 11 1 2
-10 1 -21 -2 -24z m-136 2 c7 -8 8 -15 2 -15 -5 0 -15 7 -22 15 -7 8 -8 15 -2
15 5 0 15 -7 22 -15z m18 -72 c19 -21 22 -35 22 -107 0 -93 -12 -120 -51 -114
-24 3 -24 4 -21 90 3 75 1 89 -13 94 -36 14 -42 -14 -53 -245 -10 -240 -7
-276 24 -276 18 0 19 8 18 135 0 86 3 138 10 142 6 4 26 8 45 8 l34 0 -7 -157
c-7 -156 -8 -158 -34 -181 -41 -34 -91 -45 -120 -26 -49 32 -55 70 -48 294 9
270 13 305 43 340 38 46 110 47 151 3z m223 8 c23 -18 24 -24 21 -127 -3 -78
-8 -116 -20 -136 -15 -26 -15 -32 5 -95 38 -121 38 -111 -3 -128 -20 -8 -38
-15 -39 -15 -2 0 -11 29 -20 65 -17 60 -30 84 -40 73 -2 -2 -7 -41 -11 -86 -7
-78 -9 -84 -35 -98 -15 -7 -31 -14 -35 -14 -7 0 3 428 13 523 l6 57 67 0 c52
0 73 -5 91 -19z m218 -7 c19 -24 21 -40 21 -181 0 -173 -10 -212 -61 -238 -58
-31 -106 -13 -124 44 -4 13 -4 98 0 189 7 155 9 167 31 189 34 34 105 33 133
-3z m115 -20 c3 -26 6 -63 7 -83 1 -33 2 -34 9 -11 4 14 8 51 9 83 l1 57 35 0
35 0 0 -67 c0 -38 5 -75 10 -83 7 -11 10 -3 10 30 0 25 3 62 6 83 6 35 9 37
42 37 l35 0 -7 -47 c-3 -27 -13 -113 -21 -192 -9 -89 -20 -148 -28 -153 -6 -4
-24 -8 -39 -8 -26 0 -28 3 -29 38 -1 71 -15 81 -23 15 l-7 -61 -39 -4 c-38 -3
-39 -2 -44 32 -6 33 -36 350 -36 370 0 6 15 10 34 10 32 0 34 -2 40 -46z m297
-66 c0 -62 1 -138 2 -168 l2 -55 43 -3 c41 -3 42 -4 42 -38 l0 -36 -40 6 c-22
3 -58 9 -80 12 l-40 6 0 194 0 194 35 0 35 0 1 -112z m269 99 c0 -18 37 -347
46 -411 7 -46 6 -49 -12 -42 -10 5 -27 11 -36 13 -10 3 -18 13 -18 23 0 24
-26 50 -51 50 -12 0 -19 -7 -19 -20 0 -15 -7 -20 -29 -20 -17 0 -33 5 -36 10
-6 10 21 371 30 398 6 18 125 17 125 -1z m157 -42 c7 -27 22 -86 33 -130 l20
-80 -5 133 -5 132 34 0 c33 0 35 -2 40 -42 3 -24 7 -155 10 -291 l6 -248 -43
23 -42 23 -31 120 c-42 165 -42 165 -36 33 5 -125 4 -128 -41 -107 -23 10 -24
17 -31 131 -3 67 -6 175 -6 240 l0 119 42 -3 c41 -3 42 -4 55 -53z m338 29
c29 -31 32 -59 40 -321 6 -204 -1 -265 -36 -302 -29 -31 -77 -27 -128 9 -23
17 -44 36 -46 43 -2 7 -6 144 -10 305 l-6 292 81 0 c74 0 83 -2 105 -26z
m-816 -423 c10 -6 1 -8 -27 -4 -31 4 -50 0 -79 -16 l-38 -22 28 26 c29 26 87
34 116 16z m-26 -94 c-4 -16 -1 -18 19 -12 l23 6 -24 -20 c-13 -12 -32 -21
-42 -21 -10 0 -18 -5 -16 -11 5 -23 -19 -18 -37 8 -16 22 -17 25 -3 20 12 -4
14 -2 10 10 -5 13 -3 14 15 4 20 -11 21 -10 16 18 -3 15 0 39 7 52 l12 24 13
-30 c7 -16 10 -38 7 -48z m-320 -11 c23 -14 65 -32 94 -41 29 -9 58 -24 65
-32 11 -14 8 -15 -22 -9 -38 8 -162 65 -195 90 -34 26 10 20 58 -8z m667 16
c0 -10 -163 -87 -202 -96 -45 -10 -23 19 25 34 23 7 67 25 97 41 57 29 80 35
80 21z m-323 -59 c-9 -9 -20 -13 -24 -9 -4 4 -1 11 7 16 25 16 35 11 17 -7z"/>
<path d="M1400 1703 c-28 -5 -50 -21 -50 -35 0 -5 7 -3 15 6 14 14 45 21 135
29 19 2 10 4 -20 4 -30 0 -66 -2 -80 -4z"/>
<path d="M1548 1694 c17 -8 15 -27 -7 -51 -13 -14 -44 -25 -91 -34 -39 -7 -73
-16 -76 -20 -2 -4 6 -17 18 -28 28 -27 79 -27 102 -2 10 11 31 23 48 26 33 8
49 37 44 82 -2 21 -9 29 -27 30 -13 1 -18 0 -11 -3z"/>
<path d="M1670 1527 c-28 -14 -33 -27 -20 -47 8 -13 14 -10 41 16 23 24 27 32
16 37 -8 3 -25 0 -37 -6z"/>
<path d="M1540 1521 c0 -13 56 -52 64 -44 12 12 6 41 -10 47 -24 9 -54 7 -54
-3z"/>
<path d="M1570 1330 c-11 -7 2 -10 43 -10 36 0 56 4 52 10 -8 13 -75 13 -95 0z"/>
<path d="M996 789 c-3 -17 -6 -67 -6 -110 0 -71 2 -79 19 -79 25 0 29 15 33
125 3 85 2 90 -18 93 -17 2 -23 -4 -28 -29z"/>
<path d="M1215 670 c-5 -114 -4 -154 5 -165 10 -12 16 -13 26 -4 11 9 14 47
14 165 0 144 -1 154 -19 154 -17 0 -19 -13 -26 -150z"/>
<path d="M1917 700 c-12 -99 -9 -128 14 -135 11 -4 22 -5 24 -3 3 3 -11 94
-24 158 -7 34 -7 34 -14 -20z"/>
<path d="M2384 573 c4 -137 9 -256 12 -265 8 -27 33 -22 45 9 13 34 1 473 -14
491 -5 6 -19 12 -30 12 -19 0 -20 -4 -13 -247z"/>
</g>
</svg>
